<svg id="Layer_1" data-name="Layer 1" xmlns="http://www.w3.org/2000/svg" viewBox="0 0 570.9 163.07"><defs><style>.cls-1{fill:#e52329;}.cls-2,.cls-3{fill:#1d345c;}.cls-2{fill-rule:evenodd;}</style></defs><title>Acorn_Logo2017_CMYK</title><path class="cls-1" d="M307.72,379.15c-6.7-6.4-10.09-14.94-10.09-25.39a51,51,0,0,1,4.15-19.89,55.81,55.81,0,0,1,10-15.71L279.91,254.3c-1.22-2.43-3.21-6.66-2.86-7.68q1.08-7.44,11.06-9.17v-2H208.59v2Q220,238.94,220,246.62a14.39,14.39,0,0,1-2.14,7.19L154.39,370.53q-7.5,13.64-14.45,19.2t-17.65,6.33v2.47h73.1v-2.47q-18.9-.75-20-13.88A51.65,51.65,0,0,1,179.35,369l22.46-43.61q27.83.24,50.1,8.67T287,354.92q12.84,12.39,12.84,24.28,0,13.64-17.48,16.86v2.47h81.66v-2.47c-6.74,0-12.43-3-17.07-9.06a46.65,46.65,0,0,1-12.85,1.78C323.27,388.78,314.38,385.54,307.72,379.15Zm-27.81-46q-30-19.83-72.75-19.83L240,253.81Z" transform="translate(-122.29 -235.47)"/><path class="cls-1" d="M331.22,371.15c2.12,2.3,5.11,3.55,9,3.92l-12.15-24.33a53.85,53.85,0,0,0-.66,8.08C327.41,364.29,328.69,368.44,331.22,371.15Z" transform="translate(-122.29 -235.47)"/><path class="cls-2" d="M466.44,311.45c-6.31-6.11-14.74-9.22-25-9.22a56,56,0,0,0-21.08,4,55,55,0,0,0-17.87,11.67,52.94,52.94,0,0,0-11.52,16.19,44,44,0,0,0-4.08,18c0,10.18,3.29,18.46,9.75,24.6s15.38,9.26,26.29,9.26a52.54,52.54,0,0,0,37.23-15c10.48-10,15.79-21.77,15.79-35.06C475.91,325.78,472.72,317.58,466.44,311.45Zm-16.7,31.83a119.77,119.77,0,0,1-6.28,19.86c-2.44,5.68-5.19,10-8.17,12.79a14.82,14.82,0,0,1-10.47,4.51,12.76,12.76,0,0,1-10.48-5c-2.54-3.22-3.82-7.55-3.82-12.87,0-4.66.84-10.53,2.59-17.95A112.7,112.7,0,0,1,419.63,325c2.69-6,5.52-10.45,8.39-13.21a14.25,14.25,0,0,1,10.1-4.34,12.45,12.45,0,0,1,10.32,5c2.47,3.21,3.72,7.54,3.72,12.86A85.52,85.52,0,0,1,449.74,343.28Z" transform="translate(-122.29 -235.47)"/><path class="cls-2" d="M545.69,306.82c4.94-3.65,10-5.5,15.15-5.5,4.57,0,8,1.21,10.61,3.7s3.79,5.82,3.79,10.18a12.64,12.64,0,0,1-3.37,9.08,11,11,0,0,1-8.42,3.57,11.18,11.18,0,0,1-7.62-2.48A8.09,8.09,0,0,1,553.1,319v-1.92a5.73,5.73,0,0,0-.82-3.55,3.72,3.72,0,0,0-3.14-1.24c-4.24,0-9.67,5.67-17.09,17.85-7,11.55-12.78,25.53-17.1,41.55l-3,11.63h-23c.95-3.25,16.73-56.75,16.73-56.75s.26-1,.26-1a35.62,35.62,0,0,0,1.66-8,6.68,6.68,0,0,0-2.13-5.07,7.72,7.72,0,0,0-5.45-1.91H493.1c.45-1.81,1.1-4.49,1.39-5.68l38.61-1.26c-.74,2.91-6.5,26.45-6.5,26.45l4.07-6.23C535.54,316.35,540.6,310.62,545.69,306.82Z" transform="translate(-122.29 -235.47)"/><path class="cls-2" d="M640.53,308.71c5.73-3.75,11.41-5.64,16.88-5.64,5.68,0,10.07,1.44,13,4.3s4.48,7,4.48,12.46a28.51,28.51,0,0,1-.78,5.88,88.06,88.06,0,0,1-2.43,8.88l-10.35,31.89c0,.06-.45,1.91-.45,1.91s-.13,1.95-.13,1.95a4.33,4.33,0,0,0,1.08,3.13,4,4,0,0,0,3,1.17c2.25,0,4.92-1.72,8.14-5.27a96.89,96.89,0,0,0,9.37-13.11l3.9,2.76c-5.24,9-10.66,15.82-16.14,20.28s-11.46,6.79-17.57,6.79c-5.16,0-9.12-1.2-11.78-3.56s-4-5.72-4-10.24a28.37,28.37,0,0,1,.69-5.87,47.92,47.92,0,0,1,1.84-6.63s9.69-27.48,9.69-27.48l2.16-7a20.08,20.08,0,0,0,.85-4.47,6.1,6.1,0,0,0-1.79-4.58,6.52,6.52,0,0,0-4.61-1.73c-3,0-6.44,1.61-10.58,4.92A58.63,58.63,0,0,0,623.72,332a88,88,0,0,0-8.34,15.44,201.45,201.45,0,0,0-7.85,24.05l-3.19,11.8H580.27l17.62-56.68,1.47-5.35.46-3.72a6.71,6.71,0,0,0-2.12-5.07,7.77,7.77,0,0,0-5.46-1.91h-6.88c.45-1.81,1.1-4.49,1.4-5.68l38.64-1.26c-.68,2.91-6.95,29.62-6.95,29.62,2.24-3.37,2.24-3.37,4.7-7.26S634.73,312.49,640.53,308.71Z" transform="translate(-122.29 -235.47)"/><path class="cls-3" d="M361.06,308.71a11.5,11.5,0,0,0-5.86-1.4,18.6,18.6,0,0,0-11.14,3.76,34.16,34.16,0,0,0-9.21,10.87,80.06,80.06,0,0,0-7.26,18.22c-.62,2.28-1.11,4.45-1.53,6.57a63.76,63.76,0,0,0-1.34,12.09c0,6.18,1.53,10.94,4.53,14.16s7,4.73,12.37,4.9c.32,0,.62,0,.94,0,4.54,0,9.28-1.6,14.09-4.74a44.63,44.63,0,0,0,11.75-11.62l3.59,3.1a49.12,49.12,0,0,1-16.25,15.75,41.76,41.76,0,0,1-10.39,4.27,44.1,44.1,0,0,1-11.21,1.41c-10.16,0-18.42-3-24.56-8.87s-9.27-13.77-9.27-23.46a48.42,48.42,0,0,1,3.95-18.85,52.8,52.8,0,0,1,8.83-14.16c.71-.82,1.4-1.65,2.15-2.43a54.1,54.1,0,0,1,17.16-11.57,51,51,0,0,1,19.84-4.17c8.94,0,16.05,1.88,21.13,5.6a17.11,17.11,0,0,1,7.5,14.78c0,4.6-1.37,8.35-4.08,11.13a14,14,0,0,1-10.59,4.19,11.61,11.61,0,0,1-8.28-3,10,10,0,0,1-3.16-7.73,10.48,10.48,0,0,1,4-8.37c4.39-3.68,5-5.24,5-6.28A4.85,4.85,0,0,0,361.06,308.71Z" transform="translate(-122.29 -235.47)"/><path class="cls-3" d="M678.55,298.78a7.34,7.34,0,0,1,7.32-7.32h0v1a6.35,6.35,0,0,0-6.32,6.33h0a6.33,6.33,0,0,0,6.32,6.32h0a6.35,6.35,0,0,0,6.33-6.32h0a6.36,6.36,0,0,0-6.33-6.33h0v-1a7.33,7.33,0,0,1,7.32,7.32h0a7.33,7.33,0,0,1-7.32,7.32h0a7.34,7.34,0,0,1-7.32-7.32Z" transform="translate(-122.29 -235.47)"/><path class="cls-2" d="M682.8,303v-8.6h4.09a3,3,0,0,1,1.92.63,2.11,2.11,0,0,1,.79,1.74,2.06,2.06,0,0,1-1.19,2,1.2,1.2,0,0,1,.89.85,7.27,7.27,0,0,1,.16,1.75c0,.23,0,.45,0,.67a1.35,1.35,0,0,0,.14.51.5.5,0,0,0,.3.27V303h-1.44a5.76,5.76,0,0,1-.15-1.56,3.77,3.77,0,0,0-.26-1.6c-.18-.34-.58-.51-1.21-.51H684V303Zm1.15-4.68h2.94a1.41,1.41,0,0,0,1.11-.41,1.62,1.62,0,0,0,.41-1,1.47,1.47,0,0,0-.32-1,1.32,1.32,0,0,0-1.1-.43h-3v2.92Z" transform="translate(-122.29 -235.47)"/><path class="cls-3" d="M678.55,298.78a7.34,7.34,0,0,1,7.32-7.32h0v1a6.35,6.35,0,0,0-6.32,6.33h0a6.33,6.33,0,0,0,6.32,6.32h0a6.35,6.35,0,0,0,6.33-6.32h0a6.36,6.36,0,0,0-6.33-6.33h0v-1a7.33,7.33,0,0,1,7.32,7.32h0a7.33,7.33,0,0,1-7.32,7.32h0a7.34,7.34,0,0,1-7.32-7.32Z" transform="translate(-122.29 -235.47)"/><path class="cls-2" d="M682.8,303v-8.6h4.09a3,3,0,0,1,1.92.63,2.11,2.11,0,0,1,.79,1.74,2.06,2.06,0,0,1-1.19,2,1.2,1.2,0,0,1,.89.85,7.27,7.27,0,0,1,.16,1.75c0,.23,0,.45,0,.67a1.35,1.35,0,0,0,.14.51.5.5,0,0,0,.3.27V303h-1.44a5.76,5.76,0,0,1-.15-1.56,3.77,3.77,0,0,0-.26-1.6c-.18-.34-.58-.51-1.21-.51H684V303Zm1.15-4.68h2.94a1.41,1.41,0,0,0,1.11-.41,1.62,1.62,0,0,0,.41-1,1.47,1.47,0,0,0-.32-1,1.32,1.32,0,0,0-1.1-.43h-3v2.92Z" transform="translate(-122.29 -235.47)"/></svg>